<svg width="256" height="256" viewBox="0 0 256 256" fill="none" xmlns="http://www.w3.org/2000/svg">
<g clip-path="url(#clip0_4207_198)">
<path d="M121.883 214.077C119.447 213.927 117.011 213.727 114.575 213.376C74.8691 207.971 40.8148 175.292 33.4583 134.806C32.2891 128.45 31.8019 121.995 32.0455 115.539H58.9869C60.3997 48.379 144.001 20.7043 183.365 74.9027C192.378 87.2637 195.399 100.275 197.202 115.389L223.997 115.539C223.997 163.131 190.137 203.718 144.975 212.425C137.375 213.877 129.629 214.477 121.883 214.027V214.077ZM167.873 115.539C165.632 61.6408 90.5565 62.0912 87.0488 115.539H167.873ZM168.993 116.69C166.752 170.688 91.1899 172.29 86.9026 118.592L86.8052 116.69H60.1561C60.7895 172.89 121.59 204.869 167.142 172.89C185.022 160.329 195.35 138.81 195.935 116.69H168.993Z" fill="#402F87"/>
<path d="M167.871 115.538H87.0469C90.5059 62.0904 165.63 61.6399 167.871 115.538Z" fill="white"/>
</g>
<defs>
<clipPath id="clip0_4207_198">
<rect width="192" height="163.548" fill="white" transform="translate(32 46.2266)"/>
</clipPath>
</defs>
</svg>
