<?xml version="1.0" encoding="UTF-8" standalone="no"?>
<!-- Uploaded to: SVG Repo, www.svgrepo.com, Generator: SVG Repo Mixer Tools -->

<svg
   width="800px"
   height="800px"
   viewBox="0 0 24 24"
   fill="none"
   version="1.1"
   id="svg1"
   sodipodi:docname="cube-02-svgrepo-com.svg"
   inkscape:version="1.4.3 (0d15f75042, 2025-12-25)"
   inkscape:export-filename="qube_logo(small).png"
   inkscape:export-xdpi="11.52"
   inkscape:export-ydpi="11.52"
   xmlns:inkscape="http://www.inkscape.org/namespaces/inkscape"
   xmlns:sodipodi="http://sodipodi.sourceforge.net/DTD/sodipodi-0.dtd"
   xmlns="http://www.w3.org/2000/svg"
   xmlns:svg="http://www.w3.org/2000/svg">
  <defs
     id="defs1" />
  <sodipodi:namedview
     id="namedview1"
     pagecolor="#ffffff"
     bordercolor="#000000"
     borderopacity="0.25"
     inkscape:showpageshadow="2"
     inkscape:pageopacity="0.0"
     inkscape:pagecheckerboard="0"
     inkscape:deskcolor="#d1d1d1"
     inkscape:zoom="1.6"
     inkscape:cx="507.5"
     inkscape:cy="399.375"
     inkscape:window-width="2560"
     inkscape:window-height="1528"
     inkscape:window-x="1200"
     inkscape:window-y="0"
     inkscape:window-maximized="1"
     inkscape:current-layer="svg1" />
  <path
     d="M12 2.50008V12.0001M12 12.0001L20.5 7.27779M12 12.0001L3.5 7.27779M12 12.0001V21.5001M20.5 16.7223L12.777 12.4318C12.4934 12.2742 12.3516 12.1954 12.2015 12.1645C12.0685 12.1372 11.9315 12.1372 11.7986 12.1645C11.6484 12.1954 11.5066 12.2742 11.223 12.4318L3.5 16.7223M21 16.0586V7.94153C21 7.59889 21 7.42757 20.9495 7.27477C20.9049 7.13959 20.8318 7.01551 20.7354 6.91082C20.6263 6.79248 20.4766 6.70928 20.177 6.54288L12.777 2.43177C12.4934 2.27421 12.3516 2.19543 12.2015 2.16454C12.0685 2.13721 11.9315 2.13721 11.7986 2.16454C11.6484 2.19543 11.5066 2.27421 11.223 2.43177L3.82297 6.54288C3.52345 6.70928 3.37369 6.79248 3.26463 6.91082C3.16816 7.01551 3.09515 7.13959 3.05048 7.27477C3 7.42757 3 7.59889 3 7.94153V16.0586C3 16.4013 3 16.5726 3.05048 16.7254C3.09515 16.8606 3.16816 16.9847 3.26463 17.0893C3.37369 17.2077 3.52345 17.2909 3.82297 17.4573L11.223 21.5684C11.5066 21.726 11.6484 21.8047 11.7986 21.8356C11.9315 21.863 12.0685 21.863 12.2015 21.8356C12.3516 21.8047 12.4934 21.726 12.777 21.5684L20.177 17.4573C20.4766 17.2909 20.6263 17.2077 20.7354 17.0893C20.8318 16.9847 20.9049 16.8606 20.9495 16.7254C21 16.5726 21 16.4013 21 16.0586Z"
     stroke="#000000"
     stroke-width="2"
     stroke-linecap="round"
     stroke-linejoin="round"
     id="path1" />
  <g
     inkscape:groupmode="layer"
     id="layer1"
     inkscape:label="Q Tail" />
  <rect
     style="fill:#000000;fill-opacity:1;stroke:#000000;stroke-width:1.95;stroke-linecap:round;stroke-dasharray:none;stroke-linejoin:round"
     id="rect3"
     width="5.0812502"
     height="0.018750001"
     x="23.798712"
     y="9.5705538"
     transform="rotate(28.981396)" />
</svg>
