<svg xmlns="http://www.w3.org/2000/svg" xml:space="preserve" viewBox="0 0 512 512"><path d="M0 36.57C0 16.37 16.37 0 36.57 0h438.86C495.63 0 512 16.37 512 36.57s-16.37 36.57-36.57 36.57H36.57C16.37 73.14 0 56.77 0 36.57m0 146.29c0-20.2 16.37-36.57 36.57-36.57h438.86c20.2 0 36.57 16.37 36.57 36.57s-16.37 36.57-36.57 36.57H36.57C16.37 219.43 0 203.06 0 182.86m0 146.28c0-20.2 16.37-36.57 36.57-36.57h438.86c20.2 0 36.57 16.37 36.57 36.57s-16.37 36.57-36.57 36.57H36.57C16.37 365.71 0 349.34 0 329.14m0 146.29c0-20.2 16.37-36.57 36.57-36.57h438.86c20.2 0 36.57 16.37 36.57 36.57S495.63 512 475.43 512H36.57C16.37 512 0 495.63 0 475.43" style="fill:#212121"/></svg>