<svg xmlns="http://www.w3.org/2000/svg" xml:space="preserve" viewBox="0 0 512 512"><path d="M146.29 0c-20.2 0-36.57 16.37-36.57 36.57s16.37 36.57 36.57 36.57h219.43c20.2 0 36.57-16.37 36.57-36.57S385.91 0 365.71 0zm0 146.29c-20.2 0-36.57 16.37-36.57 36.57s16.37 36.57 36.57 36.57h219.43c20.2 0 36.57-16.37 36.57-36.57s-16.37-36.57-36.57-36.57zm-36.58 182.85c0-20.2 16.37-36.57 36.57-36.57h219.43c20.2 0 36.57 16.37 36.57 36.57s-16.37 36.57-36.57 36.57H146.29c-20.2 0-36.58-16.37-36.58-36.57m36.58 109.72c-20.2 0-36.57 16.37-36.57 36.57S126.09 512 146.29 512h219.43c20.2 0 36.57-16.37 36.57-36.57s-16.37-36.57-36.57-36.57z" style="fill:#212121"/></svg>