<svg xmlns="http://www.w3.org/2000/svg" xml:space="preserve" viewBox="0 0 512 512"><path d="m46 167.3 61.8-61.8 61.8 61.8c10.5 10.5 27.6 10.5 38.1 0s10.5-27.6 0-38.1l-80.8-80.8c-10.5-10.5-27.6-10.5-38.1 0L7.9 129.2c-10.5 10.5-10.5 27.6 0 38.1s27.6 10.5 38.1 0M7.9 382.8l80.8 80.8c5 5 12 7.9 19.1 7.9s14-2.9 19.1-7.9l80.8-80.8c10.5-10.5 10.5-27.6 0-38.1s-27.6-10.5-38.1 0l-61.8 61.8L46 344.7c-10.5-10.5-27.6-10.5-38.1 0-10.5 10.6-10.5 27.6 0 38.1"/><path d="M80.8 67.4v377.3c0 14.9 12.1 26.9 26.9 26.9s26.9-12.1 26.9-26.9V67.4c0-14.9-12.1-26.9-26.9-26.9s-26.9 12-26.9 26.9M296.4 121.3H485c14.9 0 26.9-12.1 26.9-26.9 0-14.9-12.1-26.9-26.9-26.9H296.4c-14.9 0-26.9 12.1-26.9 26.9s12 26.9 26.9 26.9M296.4 282.9H485c14.9 0 26.9-12.1 26.9-26.9 0-14.9-12.1-26.9-26.9-26.9H296.4c-14.9 0-26.9 12.1-26.9 26.9 0 14.9 12 26.9 26.9 26.9M296.4 444.6H485c14.9 0 26.9-12.1 26.9-26.9 0-14.9-12.1-26.9-26.9-26.9H296.4c-14.9 0-26.9 12.1-26.9 26.9 0 14.9 12 26.9 26.9 26.9"/></svg>